<svg xmlns="http://www.w3.org/2000/svg" xmlns:xlink="http://www.w3.org/1999/xlink" version="1.1" x="0px" y="0px" viewBox="0 0 30 35" style="enable-background:new 0 0 30 28;" xml:space="preserve"><g><path d="M28.896,6H30V1.875C30,0.828,29.151,0,28.104,0H1.896C0.849,0,0,0.828,0,1.875V6h1.104C1.599,6,2,6.38,2,6.875v14.209   C2,21.579,1.599,22,1.104,22H0v4.084C0,27.131,0.849,28,1.896,28h26.209C29.151,28,30,27.131,30,26.084V22h-1.104   C28.401,22,28,21.579,28,21.084V6.875C28,6.38,28.401,6,28.896,6z M18,1.979h2v2h-2V1.979z M14,1.979h2v2h-2V1.979z M10,1.979h2v2   h-2V1.979z M6,1.979h2v2H6V1.979z M4,25.979H2v-2h2V25.979z M4,3.979H2v-2h2V3.979z M8,25.979H6v-2h2V25.979z M12,25.979h-2v-2h2   V25.979z M16,25.979h-2v-2h2V25.979z M20,25.979h-2v-2h2V25.979z M24,25.979h-2v-2h2V25.979z M24,21.104   C24,21.599,23.599,22,23.104,22H6.896C6.401,22,6,21.599,6,21.104V6.896C6,6.401,6.401,6,6.896,6h16.209   C23.599,6,24,6.401,24,6.896V21.104z M24,3.979h-2v-2h2V3.979z M28,25.979h-2v-2h2V25.979z M26,3.979v-2h2v2H26z"/><path d="M18.027,15.797l2.891-0.748c0.309-1.746-0.161-3.599-1.405-5.013L18.027,15.797z"/><path d="M13.042,8.322c-0.838,0.288-1.626,0.758-2.294,1.427c-0.663,0.662-1.132,1.443-1.421,2.274l5.893-1.524L13.042,8.322z"/><path d="M18.981,9.504c-1.436-1.272-3.329-1.745-5.104-1.41l4.348,4.348L18.981,9.504z"/><path d="M17.347,19.537c0.691-0.294,1.341-0.72,1.906-1.283c0.721-0.722,1.218-1.581,1.496-2.492l-5.701,1.476L17.347,19.537z"/><path d="M11.137,18.605c1.539,1.294,3.57,1.693,5.416,1.2l-4.552-4.551L11.137,18.605z"/><path d="M9.123,12.746c-0.396,1.857,0.099,3.863,1.479,5.346l1.582-6.138L9.123,12.746z"/></g><text x="0" y="43" fill="#000000" font-size="5px" font-weight="bold" font-family="'Helvetica Neue', Helvetica, Arial-Unicode, Arial, Sans-serif">Created by Baboon designs</text><text x="0" y="48" fill="#000000" font-size="5px" font-weight="bold" font-family="'Helvetica Neue', Helvetica, Arial-Unicode, Arial, Sans-serif">from the Noun Project</text></svg>