<?xml version="1.0" standalone="no"?>
<!DOCTYPE svg PUBLIC "-//W3C//DTD SVG 20010904//EN"
 "http://www.w3.org/TR/2001/REC-SVG-20010904/DTD/svg10.dtd">
<svg version="1.0" xmlns="http://www.w3.org/2000/svg"
 width="225.000000pt" height="224.000000pt" viewBox="0 0 225.000000 224.000000"
 preserveAspectRatio="xMidYMid meet">

<g transform="translate(0.000000,224.000000) scale(0.100000,-0.100000)"
fill="#ffffff" stroke="none">
<path d="M805 1765 c-62 -128 -159 -173 -370 -174 -56 0 -80 -6 -130 -30 -76
-38 -150 -110 -184 -181 -22 -47 -26 -68 -26 -145 0 -104 18 -150 89 -223 67
-71 106 -87 211 -87 96 1 125 10 195 65 33 26 38 27 68 15 17 -8 41 -29 52
-47 22 -34 22 -74 3 -203 -4 -30 -3 -37 6 -29 6 6 14 52 16 105 6 109 -9 153
-60 179 -16 8 -32 16 -34 17 -2 1 15 29 37 62 l39 59 12 -26 c39 -85 126 -147
223 -158 99 -12 188 29 258 117 l40 51 0 -61 c0 -48 4 -65 20 -81 55 -55 120
9 120 117 l0 63 43 0 c62 0 125 36 162 92 16 26 32 47 35 47 3 1 15 -15 28
-34 21 -33 21 -37 7 -65 -8 -16 -15 -35 -15 -43 0 -8 -7 -20 -15 -27 -21 -17
-19 -40 5 -65 11 -11 23 -35 26 -53 l6 -31 -72 20 c-39 11 -74 19 -76 16 -3
-2 32 -14 76 -27 45 -12 84 -20 86 -18 2 3 -1 19 -6 37 -7 27 -6 32 5 27 118
-45 211 -27 275 54 46 58 50 106 14 149 -30 36 -78 61 -119 61 -28 0 -33 14
-9 28 13 7 6 12 -29 21 -55 13 -67 14 -47 1 8 -5 25 -10 38 -10 13 0 20 -4 17
-10 -10 -16 -40 -12 -58 8 -13 14 -14 21 -5 30 17 17 48 15 91 -8 52 -28 82
-26 106 9 26 36 26 50 4 68 -55 43 -161 57 -215 29 -25 -13 -28 -13 -28 0 0
24 19 56 59 98 27 29 31 37 16 32 -137 -39 -168 -39 -199 6 -18 25 -21 84 -6
122 5 14 7 26 4 26 -3 0 -43 -29 -90 -65 -93 -71 -123 -79 -167 -45 -14 11
-31 36 -37 55 -6 19 -15 35 -18 34 -4 0 -21 -19 -37 -42 -31 -43 -65 -57 -89
-38 -7 6 -21 33 -31 59 -10 26 -21 51 -25 55 -4 5 -27 -17 -51 -48 -75 -99
-111 -94 -173 24 -20 39 -39 71 -40 71 -2 0 -16 -25 -31 -55z m69 -39 c52 -94
115 -109 163 -41 10 15 28 38 39 53 l22 27 12 -42 c27 -90 86 -110 138 -47
l29 35 21 -34 c33 -52 88 -70 135 -45 12 6 48 31 79 55 l57 43 -1 -49 c-2 -95
47 -132 144 -108 l57 14 -31 -38 c-18 -22 -30 -50 -30 -66 -1 -19 -12 -39 -39
-65 -33 -32 -39 -35 -39 -18 0 38 -29 78 -81 109 -28 17 -51 21 -131 21 -73 0
-100 -4 -112 -15 -8 -8 -19 -15 -25 -15 -14 0 -31 -34 -31 -62 0 -22 -1 -21
-20 7 -51 77 -161 123 -254 106 -31 -6 -68 -17 -83 -25 -41 -21 -141 -113
-148 -136 -10 -30 -18 -24 -39 26 -19 47 -107 144 -130 144 -8 0 -19 6 -26 14
-9 12 -8 15 7 14 32 -2 96 13 133 32 44 23 118 101 132 141 5 16 11 29 13 29
2 0 19 -29 39 -64z m-382 -312 c44 -28 73 -68 64 -89 -3 -8 -18 -20 -33 -26
-15 -6 -41 -17 -57 -23 l-29 -12 59 -24 c83 -32 89 -39 70 -81 -30 -68 -61
-89 -131 -89 -48 0 -108 25 -137 57 -29 32 -58 106 -58 151 0 139 135 213 252
136z m527 6 c95 -27 147 -154 103 -253 -48 -109 -190 -96 -249 23 -45 88 -23
183 50 219 48 24 51 24 96 11z m466 -44 c10 -15 14 -33 9 -50 -6 -24 -11 -26
-55 -26 l-49 0 0 50 0 50 40 0 c31 0 43 -5 55 -24z m-905 -125 c0 -22 -4 -32
-12 -28 -7 3 -33 13 -57 23 l-44 17 49 22 c55 24 64 20 64 -34z m1208 -37 c75
-20 92 -31 92 -59 0 -23 -4 -25 -47 -25 -32 0 -60 8 -90 26 -25 14 -51 23 -59
20 -17 -7 -18 5 -2 39 9 20 17 25 32 20 12 -3 45 -12 74 -21z"/>
<path d="M2053 1560 c-18 -17 -35 -45 -38 -63 -4 -18 -5 -110 -3 -206 3 -168
4 -173 27 -192 34 -28 59 -23 97 18 l34 37 0 199 c0 117 -4 206 -10 218 -17
30 -69 25 -107 -11z"/>
<path d="M2046 1030 c-43 -47 -44 -63 -11 -95 34 -35 60 -31 100 13 39 42 45
80 17 105 -31 29 -66 21 -106 -23z"/>
<path d="M1395 1009 c-26 -23 -40 -47 -52 -90 l-16 -59 -52 55 c-45 49 -55 55
-92 55 -47 0 -76 -20 -117 -79 -30 -43 -46 -52 -46 -26 0 22 -45 65 -68 65
-11 0 -37 -14 -58 -31 -62 -49 -155 -141 -150 -147 3 -3 42 30 86 74 93 92
120 106 149 80 11 -10 25 -34 31 -52 7 -19 15 -34 18 -34 4 0 22 23 41 51 73
107 123 117 198 38 26 -28 50 -55 51 -60 9 -22 21 -5 32 44 19 90 58 130 135
140 23 3 21 4 -12 6 -34 1 -49 -5 -78 -30z"/>
</g>
</svg>
